<?xml version="1.0" encoding="UTF-8"?>
<!DOCTYPE svg PUBLIC "-//W3C//DTD SVG 1.1//EN" "http://www.w3.org/Graphics/SVG/1.1/DTD/svg11.dtd">
<svg xmlns="http://www.w3.org/2000/svg" xmlns:xlink="http://www.w3.org/1999/xlink" version="1.1" width="51px" height="51px" viewBox="-0.5 -0.5 51 51"><defs/><g><ellipse cx="25" cy="25" rx="25" ry="25" fill="#007fff" stroke="none" pointer-events="none"/><path d="M 21.72 45.61 L 21.72 40.68 C 21.72 38.09 20.5 35.65 18.44 34.1 C 14.32 31.23 12.54 26.01 14.04 21.21 C 15.55 16.41 19.98 13.15 25 13.15 C 30.02 13.15 34.45 16.41 35.96 21.21 C 37.46 26.01 35.68 31.23 31.56 34.1 C 29.5 35.65 28.28 38.09 28.28 40.68 L 28.28 45.61 Z" fill="none" stroke="#ffffff" stroke-width="2" stroke-miterlimit="10" pointer-events="none"/><path d="M 25 26.87 L 25 42.32 M 21.72 42.32 L 28.28 42.32" fill="none" stroke="#ffffff" stroke-width="2" stroke-miterlimit="10" pointer-events="none"/><ellipse cx="25" cy="25.88" rx="0.984254092964526" ry="0.9863963652788477" fill="none" stroke="#ffffff" stroke-width="2" pointer-events="none"/><path d="M 46.88 24.38 L 40.63 24.38" fill="none" stroke="#ffffff" stroke-width="2" stroke-miterlimit="10" pointer-events="none"/><path d="M 9.38 25 L 3.13 24.93" fill="none" stroke="#ffffff" stroke-width="2" stroke-miterlimit="10" pointer-events="none"/><path d="M 7.54 10.65 L 13.79 16.9 L 7.54 10.65" fill="none" stroke="#ffffff" stroke-width="2" stroke-miterlimit="10" pointer-events="none"/><path d="M 34.96 35 L 41.21 41.25 L 34.96 35" fill="none" stroke="#ffffff" stroke-width="2" stroke-miterlimit="10" pointer-events="none"/><path d="M 9.13 41.25 L 15.04 35 L 9.13 41.25" fill="none" stroke="#ffffff" stroke-width="2" stroke-miterlimit="10" pointer-events="none"/><path d="M 24.89 9.84 L 25 3.13" fill="none" stroke="#ffffff" stroke-width="2" stroke-miterlimit="10" pointer-events="none"/><path d="M 35.33 15.63 L 41.54 9.38 L 35.33 15.63" fill="none" stroke="#ffffff" stroke-width="2" stroke-miterlimit="10" pointer-events="none"/></g></svg>