<?xml version="1.0" encoding="UTF-8"?>
<!DOCTYPE svg PUBLIC "-//W3C//DTD SVG 1.1//EN" "http://www.w3.org/Graphics/SVG/1.1/DTD/svg11.dtd">
<svg xmlns="http://www.w3.org/2000/svg" xmlns:xlink="http://www.w3.org/1999/xlink" version="1.1" width="79px" height="79px" viewBox="-0.5 -0.5 79 79"><defs/><g><rect x="0" y="-0.4" width="78" height="78" fill="none" stroke="none" pointer-events="all"/><path d="M 35.31 15.85 L 35.31 20.23 L 29.53 20.23 L 29.53 15.87 L 28.53 15.87 L 28.53 26.02 L 29.53 26.02 L 29.53 21.22 L 35.31 21.22 L 35.31 26.02 L 36.3 26.02 L 36.3 15.85 Z M 38.59 15.87 L 38.59 16.87 L 42.09 16.87 L 42.09 26.02 L 43.08 26.02 L 43.08 16.87 L 46.48 16.87 L 46.48 15.87 Z M 48.2 15.87 L 48.2 16.87 L 51.6 16.87 L 51.6 26.02 L 52.59 26.02 L 52.59 16.87 L 55.98 16.87 L 55.98 15.87 Z M 57.49 15.87 L 57.49 26.02 L 58.49 26.02 L 58.49 21.94 L 61.61 21.94 C 62.45 21.94 63.13 21.52 63.51 20.94 C 63.9 20.36 64.03 19.65 64.03 18.96 C 64.03 17.03 62.68 15.87 61.29 15.87 Z M 58.49 16.87 L 61.29 16.87 C 62.17 16.87 63.04 17.46 63.04 18.96 C 63.04 19.51 62.91 20.04 62.68 20.39 C 62.45 20.74 62.16 20.95 61.61 20.95 L 58.49 20.95 Z M 63.79 74.62 L 63.79 77.6 L 69.76 77.6 L 69.76 74.62 Z M 54.84 74.62 L 54.84 77.6 L 60.81 77.6 L 60.81 74.62 Z M 45.89 74.62 L 45.89 77.6 L 51.86 77.6 L 51.86 74.62 Z M 36.95 74.62 L 36.95 77.6 L 42.91 77.6 L 42.91 74.62 Z M 28 74.62 L 28 77.6 L 33.96 77.6 L 33.96 74.62 Z M 19.05 74.62 L 19.05 77.6 L 25.01 77.6 L 25.01 74.62 Z M 10.1 74.62 L 10.1 77.6 L 16.07 77.6 L 16.07 74.62 Z M 0.19 74.62 L 0.19 76.11 C 0.19 76.57 0.43 76.96 0.74 77.27 C 1.01 77.47 1.36 77.6 1.68 77.6 L 7.12 77.6 L 7.12 74.62 Z M 74.83 73.72 L 74.83 74.62 L 72.74 74.62 L 72.74 77.6 L 76.32 77.6 C 76.71 77.6 77.26 77.32 77.48 77.05 C 77.69 76.77 77.81 76.48 77.81 76.11 L 77.81 73.72 Z M 0.19 66.63 L 0.19 72.6 L 3.17 72.6 L 3.17 66.63 Z M 74.83 64.77 L 74.83 70.74 L 77.81 70.74 L 77.81 64.77 Z M 73.27 57.38 L 73.27 60.37 L 74.83 60.37 L 74.83 61.79 L 77.81 61.79 L 77.81 58.88 C 77.81 58.47 77.59 58.03 77.26 57.72 C 76.96 57.49 76.73 57.38 76.32 57.38 Z M 64.32 57.38 L 64.32 60.37 L 70.29 60.37 L 70.29 57.38 Z M 55.37 57.38 L 55.37 60.37 L 61.34 60.37 L 61.34 57.38 Z M 46.42 57.38 L 46.42 60.37 L 52.39 60.37 L 52.39 57.38 Z M 37.48 57.38 L 37.48 60.37 L 43.44 60.37 L 43.44 57.38 Z M 28.53 57.38 L 28.53 60.37 L 34.49 60.37 L 34.49 57.38 Z M 19.58 57.38 L 19.58 60.37 L 25.54 60.37 L 25.54 57.38 Z M 10.63 57.38 L 10.63 60.37 L 16.6 60.37 L 16.6 57.38 Z M 1.68 57.38 C 1.24 57.38 0.89 57.59 0.61 57.88 C 0.39 58.07 0.19 58.49 0.19 58.88 L 0.19 63.65 L 3.17 63.65 L 3.17 60.37 L 7.65 60.37 L 7.65 57.38 Z M 63.79 51.26 L 63.79 54.25 L 69.76 54.25 L 69.76 51.26 Z M 54.84 51.26 L 54.84 54.25 L 60.81 54.25 L 60.81 51.26 Z M 45.89 51.26 L 45.89 54.25 L 51.86 54.25 L 51.86 51.26 Z M 36.95 51.26 L 36.95 54.25 L 42.91 54.25 L 42.91 51.26 Z M 28 51.26 L 28 54.25 L 33.96 54.25 L 33.96 51.26 Z M 19.05 51.26 L 19.05 54.25 L 25.01 54.25 L 25.01 51.26 Z M 10.1 51.26 L 10.1 54.25 L 16.07 54.25 L 16.07 51.26 Z M 0.19 51.26 L 0.19 52.75 C 0.19 53.21 0.43 53.61 0.74 53.91 C 1.01 54.12 1.36 54.25 1.68 54.25 L 7.12 54.25 L 7.12 51.26 Z M 74.83 50.37 L 74.83 51.26 L 72.74 51.26 L 72.74 54.25 L 76.32 54.25 C 76.71 54.25 77.26 53.97 77.48 53.69 C 77.69 53.42 77.81 53.12 77.81 52.75 L 77.81 50.37 Z M 0.19 43.28 L 0.19 49.24 L 3.17 49.24 L 3.17 43.28 Z M 74.83 41.42 L 74.83 47.39 L 77.81 47.39 L 77.81 41.42 Z M 73.27 34.03 L 73.27 37.01 L 74.83 37.01 L 74.83 38.44 L 77.81 38.44 L 77.81 35.52 C 77.81 35.12 77.59 34.68 77.26 34.36 C 76.96 34.13 76.73 34.03 76.32 34.03 Z M 64.32 34.03 L 64.32 37.01 L 70.29 37.01 L 70.29 34.03 Z M 55.37 34.03 L 55.37 37.01 L 61.34 37.01 L 61.34 34.03 Z M 46.42 34.03 L 46.42 37.01 L 52.39 37.01 L 52.39 34.03 Z M 37.48 34.03 L 37.48 37.01 L 43.44 37.01 L 43.44 34.03 Z M 28.53 34.03 L 28.53 37.01 L 34.49 37.01 L 34.49 34.03 Z M 19.58 34.03 L 19.58 37.01 L 25.54 37.01 L 25.54 34.03 Z M 10.63 34.03 L 10.63 37.01 L 16.6 37.01 L 16.6 34.03 Z M 1.68 34.03 C 1.24 34.03 0.89 34.24 0.61 34.52 C 0.39 34.72 0.19 35.14 0.19 35.52 L 0.19 40.29 L 3.17 40.29 L 3.17 37.01 L 7.65 37.01 L 7.65 34.03 Z M 25.12 10.68 L 25.12 13.66 L 74.83 13.66 L 74.83 27.91 L 3.17 27.91 L 3.17 21.62 L 0.19 21.62 L 0.19 29.4 C 0.19 30.22 0.86 30.89 1.68 30.89 L 76.32 30.89 C 77.14 30.89 77.81 30.22 77.81 29.4 L 77.81 12.17 C 77.81 11.34 77.14 10.68 76.32 10.68 Z M 11.17 2.58 C 15.58 2.58 19.12 6.13 19.12 10.53 C 19.12 14.94 15.58 18.48 11.17 18.48 C 6.76 18.48 3.22 14.94 3.22 10.53 C 3.22 6.13 6.76 2.58 11.17 2.58 Z M 11.17 -0.4 C 5.15 -0.4 0.24 4.51 0.24 10.53 C 0.24 16.55 5.15 21.46 11.17 21.46 C 17.19 21.46 22.1 16.55 22.1 10.53 C 22.1 4.51 17.19 -0.4 11.17 -0.4 Z" fill="#007fff" stroke="none" pointer-events="all"/></g></svg>