<?xml version="1.0" encoding="UTF-8"?>
<!DOCTYPE svg PUBLIC "-//W3C//DTD SVG 1.1//EN" "http://www.w3.org/Graphics/SVG/1.1/DTD/svg11.dtd">
<svg xmlns="http://www.w3.org/2000/svg" xmlns:xlink="http://www.w3.org/1999/xlink" version="1.1" width="46px" height="46px" viewBox="-0.5 -0.5 46 46"><defs/><g><path d="M 5.25 21.84 C 5.95 21.84 6.44 21.32 6.44 20.67 C 6.44 19.93 5.94 19.4 5.24 19.4 C 4.53 19.4 4.07 19.96 4.07 20.58 C 4.07 21.35 4.61 21.84 5.25 21.84 Z M 5.26 25.95 C 5.95 25.95 6.44 25.49 6.44 24.77 C 6.44 24.02 5.89 23.58 5.26 23.58 C 4.64 23.58 4.08 23.97 4.08 24.77 C 4.08 25.48 4.48 25.95 5.26 25.95 Z M 8.36 26.36 L 11.13 16.93 L 9.81 16.93 L 7.03 26.36 L 8.36 26.36 Z M 12.62 26.36 L 15.39 16.93 L 14.07 16.93 L 11.28 26.36 L 12.62 26.36 Z M 18.28 24.31 L 18.28 18.67 C 19.57 18.33 20.85 18.69 21.42 19.53 C 22.21 20.92 21.93 22.46 21.37 23.31 C 21.04 23.79 20.35 24.24 19.54 24.33 L 18.28 24.31 Z M 16.25 25.79 C 17.72 26.07 19.26 26 20.36 25.78 C 22.12 25.43 23.15 24.47 23.61 23.32 C 24.18 21.78 24.11 20.1 23.4 18.91 C 22.76 17.8 21.45 17.12 19.58 17.02 C 18.5 17.01 17.4 17.01 16.25 17.23 L 16.25 25.79 Z M 32.51 25.82 L 32.51 17.06 L 30.7 17.06 C 30.71 19.14 30.7 21.23 30.84 23.16 C 29.96 21.16 28.73 19.1 27.61 17.06 L 25.26 17.06 L 25.26 25.82 L 27.06 25.82 L 27.06 19.41 C 28 21.55 29.29 23.69 30.45 25.82 L 32.51 25.82 Z M 33.89 25.44 C 34.85 25.94 36.63 26.18 38.18 25.67 C 38.95 25.38 39.77 24.75 39.9 23.43 C 39.96 22.47 39.56 21.78 38.89 21.28 C 38.1 20.67 37.2 20.66 36.41 20.07 C 35.77 19.62 36 18.89 36.72 18.68 C 37.47 18.51 38.49 18.71 39.12 18.98 L 39.53 17.45 C 38.98 17.11 38.25 16.86 36.85 16.96 C 36.01 17.03 34.86 17.33 34.28 18.52 C 33.77 19.68 34 20.56 34.71 21.25 C 35.79 22.23 37 22.2 37.51 22.71 C 37.88 23.06 38.19 23.8 37.3 24.21 C 36.26 24.61 35.11 24.13 34.31 23.8 L 33.89 25.44 Z M 0.2 44.6 L 0.2 -0.2 L 45 -0.2 L 45 44.6 L 0.2 44.6 Z" fill="#007fff" stroke="none" pointer-events="all"/></g></svg>