<?xml version="1.0" encoding="UTF-8"?>
<!DOCTYPE svg PUBLIC "-//W3C//DTD SVG 1.1//EN" "http://www.w3.org/Graphics/SVG/1.1/DTD/svg11.dtd">
<svg xmlns="http://www.w3.org/2000/svg" xmlns:xlink="http://www.w3.org/1999/xlink" version="1.1" width="65px" height="87px" viewBox="-0.5 -0.5 65 87"><defs/><g><path d="M 52.63 56.7 L 52.63 85.5 L 31.75 71.32 L 10.85 85.5 L 10.85 56.7 L 9.19 56.93 L 9.19 53.6 L 9.72 49.99 L 3.27 48.95 L 3.27 45.63 L 5.09 41.97 L 0.25 39.53 L 0.25 36.21 L 3.53 32.89 L 0.25 29.56 L 0.25 26.24 L 5.08 23.73 L 3.27 20.16 L 3.27 16.83 L 9.72 15.8 L 9.19 12.2 L 9.19 8.86 L 16.11 9.85 L 17.23 2.98 L 23.48 6.08 L 26.73 0 L 31.75 4.87 L 36.78 0 L 40.02 6.08 L 46.26 2.98 L 47.39 9.85 L 54.31 8.86 L 54.31 12.18 L 53.78 15.8 L 60.24 16.83 L 60.24 20.16 L 58.44 23.73 L 63.25 26.24 L 63.25 29.55 L 59.97 32.89 L 63.25 36.21 L 63.25 39.53 L 58.42 41.97 L 60.24 45.63 L 60.24 48.95 L 53.78 49.99 L 54.31 53.6 L 54.31 56.93 Z" fill="#007fff" stroke="none" pointer-events="none"/><path d="M 53.32 46.74 L 60.24 45.63 L 60.24 48.95 L 53.78 49.99 Z M 57.11 39.31 L 63.25 36.21 L 63.25 39.53 L 58.42 41.97 Z M 58.34 31.23 L 63.25 26.24 L 63.25 29.55 L 59.97 32.89 Z M 57.11 23.04 L 60.24 16.83 L 60.24 20.16 L 58.44 23.73 Z M 53.32 15.73 L 54.31 8.86 L 54.31 12.18 L 53.78 15.8 Z M 9.72 15.8 L 9.19 12.2 L 9.19 8.86 L 10.2 15.73 Z M 5.08 23.73 L 3.27 20.16 L 3.27 16.83 L 6.42 23.04 Z M 3.53 32.89 L 0.25 29.56 L 0.25 26.24 L 5.16 31.23 Z M 5.09 41.97 L 0.25 39.53 L 0.25 36.21 L 6.4 39.31 Z M 9.72 49.99 L 3.27 48.95 L 3.27 45.63 L 10.2 46.74 Z M 52.63 85.5 L 31.75 71.32 L 10.85 85.5 L 10.85 82.19 L 31.75 68 L 52.63 82.18 Z M 54.31 53.6 L 54.31 56.93 L 47.39 55.94 L 46.27 62.8 L 40.02 59.58 L 36.78 65.79 L 31.75 60.91 L 26.73 65.79 L 23.48 59.58 L 17.23 62.8 L 16.11 55.94 L 9.19 56.93 L 9.19 53.6 L 16.13 52.61 L 17.23 59.48 L 23.48 56.26 L 26.73 62.46 L 31.75 57.59 L 36.78 62.46 L 40.02 56.26 L 46.27 59.48 L 47.39 52.61 Z" fill-opacity="0.3" fill="#000000" stroke="none" pointer-events="none"/><rect x="0.25" y="0" width="0" height="0" fill="none" stroke="#000000" pointer-events="none"/><path d="M 18.58 34.55 C 19.92 34.55 21.03 33.45 21.03 32.15 C 21.03 30.36 19.63 29.56 18.46 29.56 C 17.12 29.56 16.01 30.67 16.01 32.07 C 16.01 33.59 17.27 34.55 18.58 34.55 Z M 31.97 35.77 C 30.69 38.76 27.42 42.09 22.52 41.86 C 18.15 41.76 12.92 38.25 13.1 32.03 C 13.28 26.85 17.68 22.56 22.98 22.7 C 27.18 22.73 30.08 25.31 31.18 27.19 L 36.66 27.19 L 38.23 29.78 L 42.03 29.46 L 43.46 30.88 L 44.81 31.23 L 48.28 29.24 L 51.86 32.56 L 50.07 35.77 Z M 31.85 53.72 C 43.86 53.72 54.42 44.08 54.42 31.29 C 54.42 19.23 44.66 8.76 31.78 8.76 C 19.4 8.76 9.07 18.5 9.07 31.25 C 9.07 44.49 20.07 53.72 31.85 53.72 Z M 31.75 57.04 C 18.17 57.04 5.72 46.16 5.72 31.17 C 5.72 16.08 18.33 5.42 31.75 5.42 C 46.05 5.42 57.77 17.07 57.77 31.23 C 57.77 46.18 45.5 57.04 31.75 57.04 Z" fill="#ffffff" stroke="none" pointer-events="none"/><path d="M 39.13 24.08 C 40.42 23.71 41.91 22.76 43.48 21.6 C 45.95 24.61 47.24 27.59 47.41 31.24 L 40.79 31.24 L 40.79 29.16 C 40.79 28.2 40.38 27.71 40.06 27.39 C 39.83 26.44 39.55 25.38 39.13 24.08 Z M 38.68 23.07 C 37.56 20.47 36.09 18.38 34.36 16.64 C 37.08 17.02 40.39 18.66 42.7 20.81 C 41.47 21.69 39.89 22.6 38.68 23.07 Z M 32.4 26.76 L 32.4 25.52 C 34.63 25.55 36.42 25.11 38.06 24.51 C 38.35 25.26 38.55 26.01 38.72 26.76 Z M 32.4 24.41 L 32.4 16.49 C 34.49 18.17 36.29 20.4 37.62 23.45 C 36 23.98 34.3 24.37 32.4 24.41 Z M 24.91 23.07 C 23.41 22.4 22.05 21.67 20.92 20.84 C 23.86 18.01 26.88 17.11 29.21 16.67 C 27.23 18.69 25.77 20.81 24.91 23.07 Z M 26 23.47 C 27.23 20.45 29.08 18.28 31.19 16.48 L 31.19 24.37 C 29.37 24.35 27.66 24 26 23.47 Z M 24.86 26.76 C 25.01 26.12 25.18 25.46 25.52 24.51 C 27.09 25.1 28.94 25.48 31.19 25.52 L 31.19 26.76 Z M 16.21 31.24 C 16.28 27.83 17.63 24.39 20.11 21.63 C 21.5 22.76 23.23 23.62 24.44 24.08 C 24.13 25.09 23.8 26.09 23.56 27.33 C 23.05 27.82 22.71 28.36 22.73 29.24 L 22.73 31.25 Z M 33.86 32.17 C 33.94 32.68 34.16 33.32 35.26 33.36 C 36.21 33.36 36.57 33.02 36.71 32.52 C 36.8 32.14 36.69 31.6 36.17 31.35 C 35.68 31.11 35.05 31.12 34.75 30.87 C 34.63 30.76 34.66 30.55 34.79 30.46 C 35.03 30.33 35.32 30.33 35.5 30.36 C 35.81 30.44 35.88 30.64 35.93 30.84 L 36.63 30.81 C 36.62 30.44 36.47 30.1 36.04 29.9 C 35.46 29.67 34.72 29.73 34.32 30.03 C 33.94 30.36 33.84 30.98 34.3 31.42 C 34.64 31.72 35.41 31.82 35.73 31.94 C 36.13 32.08 36.04 32.4 35.92 32.56 C 35.74 32.75 35.46 32.78 35.1 32.74 C 34.83 32.66 34.63 32.49 34.56 32.09 Z M 30.49 33.29 L 31.16 33.29 L 31.16 31.03 L 32.58 33.29 L 33.29 33.29 L 33.29 29.82 L 32.63 29.82 L 32.63 32.13 L 31.18 29.82 L 30.49 29.82 Z M 27.63 32.71 L 27.63 30.41 L 28.38 30.42 C 28.62 30.44 28.98 30.54 29.1 31.06 C 29.17 31.46 29.14 31.81 29.08 32.13 C 29.01 32.43 28.86 32.67 28.45 32.7 Z M 26.92 33.29 L 28.33 33.29 C 29.41 33.33 29.87 32.58 29.88 31.6 C 29.9 30.77 29.58 29.79 28.29 29.82 L 26.92 29.82 Z M 25.09 35.08 C 24.81 35.08 24.59 34.85 24.59 34.61 L 24.59 29.07 C 24.59 28.83 24.83 28.58 25.1 28.58 L 38.44 28.58 C 38.77 28.58 38.95 28.84 38.95 29.12 L 38.95 34.59 C 38.95 34.87 38.76 35.09 38.41 35.08 Z M 42.83 42.75 C 41.52 41.86 40.17 41.1 38.74 40.56 C 39.26 39.29 39.71 37.89 40.01 36.32 C 40.5 35.91 40.81 35.41 40.79 34.48 L 40.79 32.44 L 47.41 32.44 C 47.24 36.37 45.61 40.02 42.83 42.75 Z M 32.4 39.27 L 32.4 36.9 L 38.7 36.9 C 38.48 37.89 38.15 38.95 37.62 40.14 C 35.92 39.62 34.18 39.35 32.4 39.27 Z M 25.95 40.15 C 25.54 39.11 25.12 38.06 24.89 36.9 L 31.19 36.9 L 31.19 39.28 C 28.84 39.35 27.36 39.76 25.95 40.15 Z M 24.86 40.53 C 23.47 41.12 22.1 41.82 20.78 42.72 C 18.51 40.53 16.36 36.99 16.17 32.45 L 22.73 32.44 L 22.73 34.23 C 22.72 35.39 23.01 35.83 23.56 36.34 C 23.91 37.96 24.27 39.14 24.86 40.53 Z M 29.21 47.05 C 26.57 46.53 23.91 45.46 21.64 43.54 C 22.88 42.64 24.12 42.1 25.36 41.59 C 26.42 43.92 27.79 45.53 29.21 47.05 Z M 31.19 47.23 C 29.15 45.66 27.62 43.6 26.46 41.18 C 27.83 40.76 29.38 40.49 31.19 40.46 Z M 32.4 47.23 L 32.4 40.44 C 34.07 40.45 35.64 40.76 37.14 41.19 C 35.85 43.78 34.25 45.74 32.4 47.23 Z M 34.39 47.05 C 35.9 45.5 37.28 43.62 38.23 41.59 C 39.59 42.08 40.75 42.79 41.91 43.51 C 40.03 45.23 36.88 46.63 34.39 47.05 Z M 31.71 49.5 C 41.98 49.5 49.72 41.51 49.72 31.79 C 49.72 22.31 42.05 14.14 31.55 14.14 C 22.68 14.14 13.75 21.58 13.75 31.38 C 13.75 41.58 21.76 49.5 31.71 49.5 Z M 31.79 53 C 21.59 53 10.25 44.89 10.25 31.12 C 10.25 19.47 20.47 10 31.38 10 C 43.98 10 53.25 19.72 53.25 31.7 C 53.25 42.58 44.33 53 31.79 53 Z" fill="#007fff" stroke="none" pointer-events="none"/><ellipse cx="31.75" cy="31.5" rx="21.07" ry="21.07" fill="#ffffff" stroke="none" pointer-events="none"/><path d="M 39.13 24.08 C 40.42 23.71 41.91 22.76 43.48 21.6 C 45.95 24.61 47.24 27.59 47.41 31.24 L 40.79 31.24 L 40.79 29.16 C 40.79 28.2 40.38 27.71 40.06 27.39 C 39.83 26.44 39.55 25.38 39.13 24.08 Z M 38.68 23.07 C 37.56 20.47 36.09 18.38 34.36 16.64 C 37.08 17.02 40.39 18.66 42.7 20.81 C 41.47 21.69 39.89 22.6 38.68 23.07 Z M 32.4 26.76 L 32.4 25.52 C 34.63 25.55 36.42 25.11 38.06 24.51 C 38.35 25.26 38.55 26.01 38.72 26.76 Z M 32.4 24.41 L 32.4 16.49 C 34.49 18.17 36.29 20.4 37.62 23.45 C 36 23.98 34.3 24.37 32.4 24.41 Z M 24.91 23.07 C 23.41 22.4 22.05 21.67 20.92 20.84 C 23.86 18.01 26.88 17.11 29.21 16.67 C 27.23 18.69 25.77 20.81 24.91 23.07 Z M 26 23.47 C 27.23 20.45 29.08 18.28 31.19 16.48 L 31.19 24.37 C 29.37 24.35 27.66 24 26 23.47 Z M 24.86 26.76 C 25.01 26.12 25.18 25.46 25.52 24.51 C 27.09 25.1 28.94 25.48 31.19 25.52 L 31.19 26.76 Z M 16.21 31.24 C 16.28 27.83 17.63 24.39 20.11 21.63 C 21.5 22.76 23.23 23.62 24.44 24.08 C 24.13 25.09 23.8 26.09 23.56 27.33 C 23.05 27.82 22.71 28.36 22.73 29.24 L 22.73 31.25 Z M 33.86 32.17 C 33.94 32.68 34.16 33.32 35.26 33.36 C 36.21 33.36 36.57 33.02 36.71 32.52 C 36.8 32.14 36.69 31.6 36.17 31.35 C 35.68 31.11 35.05 31.12 34.75 30.87 C 34.63 30.76 34.66 30.55 34.79 30.46 C 35.03 30.33 35.32 30.33 35.5 30.36 C 35.81 30.44 35.88 30.64 35.93 30.84 L 36.63 30.81 C 36.62 30.44 36.47 30.1 36.04 29.9 C 35.46 29.67 34.72 29.73 34.32 30.03 C 33.94 30.36 33.84 30.98 34.3 31.42 C 34.64 31.72 35.41 31.82 35.73 31.94 C 36.13 32.08 36.04 32.4 35.92 32.56 C 35.74 32.75 35.46 32.78 35.1 32.74 C 34.83 32.66 34.63 32.49 34.56 32.09 Z M 30.49 33.29 L 31.16 33.29 L 31.16 31.03 L 32.58 33.29 L 33.29 33.29 L 33.29 29.82 L 32.63 29.82 L 32.63 32.13 L 31.18 29.82 L 30.49 29.82 Z M 27.63 32.71 L 27.63 30.41 L 28.38 30.42 C 28.62 30.44 28.98 30.54 29.1 31.06 C 29.17 31.46 29.14 31.81 29.08 32.13 C 29.01 32.43 28.86 32.67 28.45 32.7 Z M 26.92 33.29 L 28.33 33.29 C 29.41 33.33 29.87 32.58 29.88 31.6 C 29.9 30.77 29.58 29.79 28.29 29.82 L 26.92 29.82 Z M 25.09 35.08 C 24.81 35.08 24.59 34.85 24.59 34.61 L 24.59 29.07 C 24.59 28.83 24.83 28.58 25.1 28.58 L 38.44 28.58 C 38.77 28.58 38.95 28.84 38.95 29.12 L 38.95 34.59 C 38.95 34.87 38.76 35.09 38.41 35.08 Z M 42.83 42.75 C 41.52 41.86 40.17 41.1 38.74 40.56 C 39.26 39.29 39.71 37.89 40.01 36.32 C 40.5 35.91 40.81 35.41 40.79 34.48 L 40.79 32.44 L 47.41 32.44 C 47.24 36.37 45.61 40.02 42.83 42.75 Z M 32.4 39.27 L 32.4 36.9 L 38.7 36.9 C 38.48 37.89 38.15 38.95 37.62 40.14 C 35.92 39.62 34.18 39.35 32.4 39.27 Z M 25.95 40.15 C 25.54 39.11 25.12 38.06 24.89 36.9 L 31.19 36.9 L 31.19 39.28 C 28.84 39.35 27.36 39.76 25.95 40.15 Z M 24.86 40.53 C 23.47 41.12 22.1 41.82 20.78 42.72 C 18.51 40.53 16.36 36.99 16.17 32.45 L 22.73 32.44 L 22.73 34.23 C 22.72 35.39 23.01 35.83 23.56 36.34 C 23.91 37.96 24.27 39.14 24.86 40.53 Z M 29.21 47.05 C 26.57 46.53 23.91 45.46 21.64 43.54 C 22.88 42.64 24.12 42.1 25.36 41.59 C 26.42 43.92 27.79 45.53 29.21 47.05 Z M 31.19 47.23 C 29.15 45.66 27.62 43.6 26.46 41.18 C 27.83 40.76 29.38 40.49 31.19 40.46 Z M 32.4 47.23 L 32.4 40.44 C 34.07 40.45 35.64 40.76 37.14 41.19 C 35.85 43.78 34.25 45.74 32.4 47.23 Z M 34.39 47.05 C 35.9 45.5 37.28 43.62 38.23 41.59 C 39.59 42.08 40.75 42.79 41.91 43.51 C 40.03 45.23 36.88 46.63 34.39 47.05 Z M 31.71 49.5 C 41.98 49.5 49.72 41.51 49.72 31.79 C 49.72 22.31 42.05 14.14 31.55 14.14 C 22.68 14.14 13.75 21.58 13.75 31.38 C 13.75 41.58 21.76 49.5 31.71 49.5 Z M 31.79 53 C 21.59 53 10.25 44.89 10.25 31.12 C 10.25 19.47 20.47 10 31.38 10 C 43.98 10 53.25 19.72 53.25 31.7 C 53.25 42.58 44.33 53 31.79 53 Z" fill="#007fff" stroke="none" pointer-events="none"/></g></svg>