<?xml version="1.0" encoding="UTF-8"?>
<!DOCTYPE svg PUBLIC "-//W3C//DTD SVG 1.1//EN" "http://www.w3.org/Graphics/SVG/1.1/DTD/svg11.dtd">
<svg xmlns="http://www.w3.org/2000/svg" xmlns:xlink="http://www.w3.org/1999/xlink" version="1.1" width="40px" height="40px" viewBox="-0.5 -0.5 40 40"><defs/><g><path d="M 4.04 39.07 C 1.73 39.07 -0.14 37.19 -0.14 34.86 L -0.14 4.36 C -0.14 2.04 1.73 0.15 4.04 0.15 L 34.6 0.15 C 35.71 0.15 36.78 0.59 37.56 1.38 C 38.34 2.17 38.78 3.24 38.78 4.36 L 38.78 34.86 C 38.78 35.98 38.34 37.05 37.56 37.84 C 36.78 38.63 35.71 39.07 34.6 39.07 Z" fill="#1a2665" stroke="none" pointer-events="all"/><path d="M 19.42 39.07 L 19.42 26.37 L 14.53 26.37 L 14.53 20.18 L 19.42 20.18 L 19.42 17.01 C 19.42 12.56 22.93 9.06 26.89 9.06 L 31.76 9.06 L 31.76 15.26 L 26.88 15.26 C 26.35 15.26 25.65 16.03 25.65 16.89 L 25.65 20.18 L 31.76 20.18 L 31.76 26.37 L 25.65 26.37 L 25.65 39.07 Z" fill="#ffffff" stroke="none" pointer-events="all"/><path d="M -0.14 4.36 C -0.14 2.04 1.73 0.15 4.04 0.15 L 34.6 0.15 C 35.71 0.15 36.78 0.59 37.56 1.38 C 38.34 2.17 38.78 3.24 38.78 4.36 L 38.78 14.61 C 26.5 20.64 12.14 20.64 -0.14 14.61 Z" fill-opacity="0" fill="#ffffff" stroke="none" pointer-events="all"/></g></svg>