<?xml version="1.0" encoding="UTF-8"?>
<!DOCTYPE svg PUBLIC "-//W3C//DTD SVG 1.1//EN" "http://www.w3.org/Graphics/SVG/1.1/DTD/svg11.dtd">
<svg xmlns="http://www.w3.org/2000/svg" xmlns:xlink="http://www.w3.org/1999/xlink" version="1.1" width="39px" height="39px" viewBox="-0.5 -0.5 39 39"><defs/><g><rect x="-0.14" y="0.15" width="37.14" height="37.14" fill="none" stroke="none" pointer-events="all"/><path d="M -0.14 18.72 C -0.14 8.46 8.17 0.15 18.43 0.15 C 23.35 0.15 28.08 2.11 31.56 5.59 C 35.04 9.07 37 13.79 37 18.72 C 37 23.64 35.04 28.37 31.56 31.85 C 28.08 35.33 23.35 37.29 18.43 37.29 C 8.17 37.29 -0.14 28.97 -0.14 18.72 Z M 1.64 18.72 C 1.6 26.15 6.47 32.72 13.6 34.84 L 13.6 31.61 C 13.67 30.45 14.27 29.39 15.24 28.75 C 12.41 28.43 9.87 27.19 8.2 25.29 C 6.53 23.39 5.87 21.02 6.4 18.72 C 6.66 17.12 7.34 15.63 8.36 14.37 C 7.73 12.77 7.78 10.97 8.51 9.4 C 10.39 9.47 12.19 10.19 13.6 11.44 C 16.73 10.35 20.12 10.34 23.26 11.4 C 24.69 10.15 26.52 9.45 28.42 9.4 C 29.16 11.03 29.21 12.89 28.57 14.56 C 29.54 15.77 30.19 17.2 30.46 18.72 C 30.98 21.02 30.34 23.39 28.68 25.28 C 27.01 27.17 24.48 28.43 21.66 28.75 C 22.57 29.33 23.18 30.28 23.33 31.35 L 23.33 34.91 C 30.47 32.78 35.34 26.17 35.26 18.72 C 35.26 14.27 33.48 10 30.32 6.86 C 27.16 3.73 22.88 1.98 18.43 2.01 C 13.98 1.99 9.71 3.74 6.56 6.88 C 3.41 10.01 1.64 14.27 1.64 18.72 Z" fill="#424e59" stroke="#314354" stroke-miterlimit="10" pointer-events="all"/></g></svg>