<?xml version="1.0" encoding="UTF-8"?>
<!DOCTYPE svg PUBLIC "-//W3C//DTD SVG 1.1//EN" "http://www.w3.org/Graphics/SVG/1.1/DTD/svg11.dtd">
<svg xmlns="http://www.w3.org/2000/svg" xmlns:xlink="http://www.w3.org/1999/xlink" version="1.1" width="46px" height="34px" viewBox="-0.5 -0.5 46 34"><defs/><g><path d="M 3.81 32.18 L 3.15 -0.15 L 42.54 -0.12 L 43.03 32.21 Z" fill="#fffef9" stroke="none" pointer-events="all"/><path d="M 4.95 31.41 L 41.94 6.36 L 43.03 32.21 L 39.84 32.21 L 22.43 20.51 L 5.39 32.17 L 4.96 32.19 Z" fill="#ccccbe" stroke="none" pointer-events="all"/><path d="M 4.96 32.19 L 2 32.18 C 0.96 32.18 0 31.33 0 30.19 L 0.02 1.96 C 0.02 0.8 0.99 -0.11 1.92 -0.11 L 3.26 -0.15 L 22.4 13.61 L 40.05 1.01 L 40.11 7.88 L 22.43 20.51 L 4.95 7.97 Z" fill="#ed4335" stroke="none" pointer-events="all"/><path d="M 39.84 32.21 L 39.82 1.16 L 41.76 -0.12 L 43.01 -0.09 C 43.86 -0.09 44.8 0.77 44.8 1.89 L 44.8 30.06 C 44.8 31.56 43.6 32.21 43.03 32.21 Z" fill="#a6332a" stroke="none" pointer-events="all"/></g></svg>