<?xml version="1.0" encoding="UTF-8"?>
<!DOCTYPE svg PUBLIC "-//W3C//DTD SVG 1.1//EN" "http://www.w3.org/Graphics/SVG/1.1/DTD/svg11.dtd">
<svg xmlns="http://www.w3.org/2000/svg" xmlns:xlink="http://www.w3.org/1999/xlink" version="1.1" width="122px" height="74px" viewBox="-0.5 -0.5 122 74"><defs/><g><rect x="0" y="-0.3" width="118.39" height="69.41" fill="none" stroke="none" pointer-events="all" transform="translate(2,3)" opacity="0.25"/><rect x="0" y="-0.3" width="118.39" height="69.41" fill="none" stroke="none" pointer-events="all"/><path d="M 68.44 64.74 C 69.58 64.74 70.38 64.3 70.15 63.96 L 67.89 60.66 C 67.61 60.16 67.2 60.06 66.53 60.06 L 51.86 60.06 C 51.15 60.06 50.78 60.18 50.44 60.68 L 48.34 63.94 C 47.93 64.46 49.15 64.74 50.03 64.74 Z M 102.71 54.02 L 102.71 5.74 L 15.62 5.74 L 15.62 54.02 Z M 6.13 69.11 C 3.81 69.09 1.73 68.32 0.86 67.14 C 0 65.97 0.35 64.8 1.08 64 L 9.51 55.53 L 9.51 5.48 C 9.51 2.96 11.79 -0.3 15.58 -0.3 L 102.73 -0.3 C 105.68 -0.3 108.82 2.04 108.82 5.8 L 108.82 55.53 L 117.33 64.08 C 118.04 64.88 118.39 65.95 117.53 67.1 C 116.41 68.55 114.3 69.01 112.3 69.11 Z" fill="#000000" stroke="none" pointer-events="all" transform="translate(2,3)" opacity="0.25"/><path d="M 68.44 64.74 C 69.58 64.74 70.38 64.3 70.15 63.96 L 67.89 60.66 C 67.61 60.16 67.2 60.06 66.53 60.06 L 51.86 60.06 C 51.15 60.06 50.78 60.18 50.44 60.68 L 48.34 63.94 C 47.93 64.46 49.15 64.74 50.03 64.74 Z M 102.71 54.02 L 102.71 5.74 L 15.62 5.74 L 15.62 54.02 Z M 6.13 69.11 C 3.81 69.09 1.73 68.32 0.86 67.14 C 0 65.97 0.35 64.8 1.08 64 L 9.51 55.53 L 9.51 5.48 C 9.51 2.96 11.79 -0.3 15.58 -0.3 L 102.73 -0.3 C 105.68 -0.3 108.82 2.04 108.82 5.8 L 108.82 55.53 L 117.33 64.08 C 118.04 64.88 118.39 65.95 117.53 67.1 C 116.41 68.55 114.3 69.01 112.3 69.11 Z" fill="#007fff" stroke="none" pointer-events="all"/></g></svg>