<?xml version="1.0" encoding="UTF-8"?>
<!DOCTYPE svg PUBLIC "-//W3C//DTD SVG 1.1//EN" "http://www.w3.org/Graphics/SVG/1.1/DTD/svg11.dtd">
<svg xmlns="http://www.w3.org/2000/svg" xmlns:xlink="http://www.w3.org/1999/xlink" version="1.1" width="49px" height="65px" viewBox="-0.5 -0.5 49 65"><defs/><g><rect x="0" y="-0.4" width="45.38" height="60.51" fill="none" stroke="none" pointer-events="all" transform="translate(2,3)" opacity="0.25"/><rect x="0" y="-0.4" width="45.38" height="60.51" fill="none" stroke="none" pointer-events="all"/><path d="M 22.69 3.93 C 23.19 3.93 23.56 3.53 23.56 3.07 C 23.56 2.7 23.28 2.19 22.69 2.19 C 22.17 2.19 21.82 2.64 21.82 3.07 C 21.82 3.62 22.31 3.93 22.69 3.93 Z M 4.36 53.21 L 41.02 53.21 L 41.02 6.52 L 4.36 6.52 Z M 22.77 58.38 C 23.5 58.38 24.44 57.72 24.44 56.69 C 24.44 55.64 23.57 54.93 22.7 54.93 C 21.55 54.93 20.94 55.9 20.94 56.59 C 20.94 57.61 21.67 58.38 22.77 58.38 Z M 3.37 60.11 C 1.62 60.11 0 58.52 0 56.77 L 0 2.95 C 0 1.34 1.44 -0.4 3.46 -0.4 L 41.84 -0.4 C 43.95 -0.4 45.38 1.28 45.38 3.07 L 45.38 56.63 C 45.38 58.66 43.65 60.11 41.99 60.11 Z" fill="#000000" stroke="none" pointer-events="all" transform="translate(2,3)" opacity="0.25"/><path d="M 22.69 3.93 C 23.19 3.93 23.56 3.53 23.56 3.07 C 23.56 2.7 23.28 2.19 22.69 2.19 C 22.17 2.19 21.82 2.64 21.82 3.07 C 21.82 3.62 22.31 3.93 22.69 3.93 Z M 4.36 53.21 L 41.02 53.21 L 41.02 6.52 L 4.36 6.52 Z M 22.77 58.38 C 23.5 58.38 24.44 57.72 24.44 56.69 C 24.44 55.64 23.57 54.93 22.7 54.93 C 21.55 54.93 20.94 55.9 20.94 56.59 C 20.94 57.61 21.67 58.38 22.77 58.38 Z M 3.37 60.11 C 1.62 60.11 0 58.52 0 56.77 L 0 2.95 C 0 1.34 1.44 -0.4 3.46 -0.4 L 41.84 -0.4 C 43.95 -0.4 45.38 1.28 45.38 3.07 L 45.38 56.63 C 45.38 58.66 43.65 60.11 41.99 60.11 Z" fill="#007fff" stroke="none" pointer-events="all"/></g></svg>