<?xml version="1.0" encoding="UTF-8"?>
<!DOCTYPE svg PUBLIC "-//W3C//DTD SVG 1.1//EN" "http://www.w3.org/Graphics/SVG/1.1/DTD/svg11.dtd">
<svg xmlns="http://www.w3.org/2000/svg" xmlns:xlink="http://www.w3.org/1999/xlink" version="1.1" width="55" height="71" viewBox="-0.5 -0.5 55 71"><defs><filter id="dropShadow"><feGaussianBlur in="SourceAlpha" stdDeviation="1.7" result="blur"/><feOffset in="blur" dx="3" dy="3" result="offsetBlur"/><feFlood flood-color="#3D4574" flood-opacity="0.4" result="offsetColor"/><feComposite in="offsetColor" in2="offsetBlur" operator="in" result="offsetBlur"/><feBlend in="SourceGraphic" in2="offsetBlur"/></filter></defs><g filter="url(#dropShadow)"><rect x="0" y="0.22" width="45.38" height="60.51" fill="none" stroke="none" pointer-events="all" transform="translate(2,3)" opacity="0.25"/><rect x="0" y="0.22" width="45.38" height="60.51" fill="none" stroke="none" pointer-events="all"/><path d="M 22.69 4.55 C 23.19 4.55 23.56 4.15 23.56 3.69 C 23.56 3.32 23.28 2.81 22.69 2.81 C 22.17 2.81 21.82 3.26 21.82 3.69 C 21.82 4.24 22.31 4.55 22.69 4.55 Z M 4.36 53.83 L 41.02 53.83 L 41.02 7.14 L 4.36 7.14 Z M 22.77 59 C 23.5 59 24.44 58.34 24.44 57.31 C 24.44 56.26 23.57 55.55 22.7 55.55 C 21.55 55.55 20.94 56.52 20.94 57.21 C 20.94 58.23 21.67 59 22.77 59 Z M 3.37 60.73 C 1.62 60.73 0 59.14 0 57.39 L 0 3.57 C 0 1.96 1.44 0.22 3.46 0.22 L 41.84 0.22 C 43.95 0.22 45.38 1.9 45.38 3.69 L 45.38 57.25 C 45.38 59.28 43.65 60.73 41.99 60.73 Z" fill="#000000" stroke="none" pointer-events="all" transform="translate(2,3)" opacity="0.25"/><path d="M 22.69 4.55 C 23.19 4.55 23.56 4.15 23.56 3.69 C 23.56 3.32 23.28 2.81 22.69 2.81 C 22.17 2.81 21.82 3.26 21.82 3.69 C 21.82 4.24 22.31 4.55 22.69 4.55 Z M 4.36 53.83 L 41.02 53.83 L 41.02 7.14 L 4.36 7.14 Z M 22.77 59 C 23.5 59 24.44 58.34 24.44 57.31 C 24.44 56.26 23.57 55.55 22.7 55.55 C 21.55 55.55 20.94 56.52 20.94 57.21 C 20.94 58.23 21.67 59 22.77 59 Z M 3.37 60.73 C 1.62 60.73 0 59.14 0 57.39 L 0 3.57 C 0 1.96 1.44 0.22 3.46 0.22 L 41.84 0.22 C 43.95 0.22 45.38 1.9 45.38 3.69 L 45.38 57.25 C 45.38 59.28 43.65 60.73 41.99 60.73 Z" fill="#505050" stroke="none" pointer-events="all"/></g></svg>