<?xml version="1.0" encoding="UTF-8"?>
<!DOCTYPE svg PUBLIC "-//W3C//DTD SVG 1.1//EN" "http://www.w3.org/Graphics/SVG/1.1/DTD/svg11.dtd">
<svg xmlns="http://www.w3.org/2000/svg" xmlns:xlink="http://www.w3.org/1999/xlink" version="1.1" width="65px" height="87px" viewBox="-0.5 -0.5 65 87"><defs/><g><path d="M 52.63 56.7 L 52.63 85.5 L 31.75 71.32 L 10.85 85.5 L 10.85 56.7 L 9.19 56.93 L 9.19 53.6 L 9.72 49.99 L 3.27 48.95 L 3.27 45.63 L 5.09 41.97 L 0.25 39.53 L 0.25 36.21 L 3.53 32.89 L 0.25 29.56 L 0.25 26.24 L 5.08 23.73 L 3.27 20.16 L 3.27 16.83 L 9.72 15.8 L 9.19 12.2 L 9.19 8.86 L 16.11 9.85 L 17.23 2.98 L 23.48 6.08 L 26.73 0 L 31.75 4.87 L 36.78 0 L 40.02 6.08 L 46.26 2.98 L 47.39 9.85 L 54.31 8.86 L 54.31 12.18 L 53.78 15.8 L 60.24 16.83 L 60.24 20.16 L 58.44 23.73 L 63.25 26.24 L 63.25 29.55 L 59.97 32.89 L 63.25 36.21 L 63.25 39.53 L 58.42 41.97 L 60.24 45.63 L 60.24 48.95 L 53.78 49.99 L 54.31 53.6 L 54.31 56.93 Z" fill="#007fff" stroke="none" pointer-events="none"/><path d="M 53.32 46.74 L 60.24 45.63 L 60.24 48.95 L 53.78 49.99 Z M 57.11 39.31 L 63.25 36.21 L 63.25 39.53 L 58.42 41.97 Z M 58.34 31.23 L 63.25 26.24 L 63.25 29.55 L 59.97 32.89 Z M 57.11 23.04 L 60.24 16.83 L 60.24 20.16 L 58.44 23.73 Z M 53.32 15.73 L 54.31 8.86 L 54.31 12.18 L 53.78 15.8 Z M 9.72 15.8 L 9.19 12.2 L 9.19 8.86 L 10.2 15.73 Z M 5.08 23.73 L 3.27 20.16 L 3.27 16.83 L 6.42 23.04 Z M 3.53 32.89 L 0.25 29.56 L 0.25 26.24 L 5.16 31.23 Z M 5.09 41.97 L 0.25 39.53 L 0.25 36.21 L 6.4 39.31 Z M 9.72 49.99 L 3.27 48.95 L 3.27 45.63 L 10.2 46.74 Z M 52.63 85.5 L 31.75 71.32 L 10.85 85.5 L 10.85 82.19 L 31.75 68 L 52.63 82.18 Z M 54.31 53.6 L 54.31 56.93 L 47.39 55.94 L 46.27 62.8 L 40.02 59.58 L 36.78 65.79 L 31.75 60.91 L 26.73 65.79 L 23.48 59.58 L 17.23 62.8 L 16.11 55.94 L 9.19 56.93 L 9.19 53.6 L 16.13 52.61 L 17.23 59.48 L 23.48 56.26 L 26.73 62.46 L 31.75 57.59 L 36.78 62.46 L 40.02 56.26 L 46.27 59.48 L 47.39 52.61 Z" fill-opacity="0.3" fill="#000000" stroke="none" pointer-events="none"/><rect x="0.25" y="0" width="0" height="0" fill="none" stroke="#000000" pointer-events="none"/><path d="M 18.58 34.55 C 19.92 34.55 21.03 33.45 21.03 32.15 C 21.03 30.36 19.63 29.56 18.46 29.56 C 17.12 29.56 16.01 30.67 16.01 32.07 C 16.01 33.59 17.27 34.55 18.58 34.55 Z M 31.97 35.77 C 30.69 38.76 27.42 42.09 22.52 41.86 C 18.15 41.76 12.92 38.25 13.1 32.03 C 13.28 26.85 17.68 22.56 22.98 22.7 C 27.18 22.73 30.08 25.31 31.18 27.19 L 36.66 27.19 L 38.23 29.78 L 42.03 29.46 L 43.46 30.88 L 44.81 31.23 L 48.28 29.24 L 51.86 32.56 L 50.07 35.77 Z M 31.85 53.72 C 43.86 53.72 54.42 44.08 54.42 31.29 C 54.42 19.23 44.66 8.76 31.78 8.76 C 19.4 8.76 9.07 18.5 9.07 31.25 C 9.07 44.49 20.07 53.72 31.85 53.72 Z M 31.75 57.04 C 18.17 57.04 5.72 46.16 5.72 31.17 C 5.72 16.08 18.33 5.42 31.75 5.42 C 46.05 5.42 57.77 17.07 57.77 31.23 C 57.77 46.18 45.5 57.04 31.75 57.04 Z" fill="#ffffff" stroke="none" pointer-events="none"/><ellipse cx="32.75" cy="32.75" rx="20" ry="20" fill="#007fff" stroke="none" pointer-events="none"/><rect x="17" y="22" width="27.75" height="16.5" fill="none" stroke="#ffffff" stroke-width="2" pointer-events="none"/><path d="M 30.88 38.5 L 30.88 41.5 M 28.1 41.5 L 33.65 41.5" fill="none" stroke="#ffffff" stroke-width="2" stroke-miterlimit="10" pointer-events="none"/><rect x="41" y="30.5" width="7.75" height="12.92" fill="#007fff" stroke="#ffffff" pointer-events="none"/><path d="M 41 31.53 L 48.75 31.53 M 41 41.48 L 48.75 41.48 M 44.49 42.45 L 45.26 42.45" fill="none" stroke="#ffffff" stroke-miterlimit="10" pointer-events="none"/></g></svg>