<?xml version="1.0" encoding="UTF-8"?>
<!DOCTYPE svg PUBLIC "-//W3C//DTD SVG 1.1//EN" "http://www.w3.org/Graphics/SVG/1.1/DTD/svg11.dtd">
<svg xmlns="http://www.w3.org/2000/svg" xmlns:xlink="http://www.w3.org/1999/xlink" version="1.1" width="96" height="89" viewBox="-0.5 -0.5 96 89"><defs><filter id="dropShadow"><feGaussianBlur in="SourceAlpha" stdDeviation="1.7" result="blur"/><feOffset in="blur" dx="3" dy="3" result="offsetBlur"/><feFlood flood-color="#3D4574" flood-opacity="0.4" result="offsetColor"/><feComposite in="offsetColor" in2="offsetBlur" operator="in" result="offsetBlur"/><feBlend in="SourceGraphic" in2="offsetBlur"/></filter></defs><g filter="url(#dropShadow)"><rect x="-0.28" y="-0.22" width="86.61" height="77.95" fill="none" stroke="none" pointer-events="all" transform="translate(2,3)" opacity="0.25"/><rect x="-0.28" y="-0.22" width="86.61" height="77.95" fill="none" stroke="none" pointer-events="all"/><path d="M 3.76 61.36 C 2.6 61.26 1.54 60.7 0.8 59.83 C 0.06 58.95 -0.28 57.83 -0.16 56.7 L -0.16 4.13 C 0.02 1.96 1.72 0.2 3.93 -0.11 L 81.36 -0.11 C 83.91 -0.21 86.09 1.65 86.32 4.13 L 86.24 57.55 C 85.73 59.8 83.73 61.43 81.36 61.53 L 54.22 61.53 L 53 66.37 C 52.72 67.48 52.91 68.66 53.53 69.64 C 54.15 70.61 55.15 71.3 56.31 71.54 C 58.94 72.41 61.71 72.79 64.49 72.64 L 69.53 72.64 L 69.53 77.73 L 13.07 77.73 L 13.07 72.64 L 19.07 72.64 C 22.21 72.66 25.33 72.14 28.29 71.12 C 30.62 70.57 32.06 68.3 31.51 66.03 L 30.73 61.53 Z M 6.28 55.26 L 79.62 55.26 L 79.62 6.42 L 6.28 6.42 Z" fill="#000000" stroke="none" pointer-events="all" transform="translate(2,3)" opacity="0.25"/><path d="M 3.76 61.36 C 2.6 61.26 1.54 60.7 0.8 59.83 C 0.06 58.95 -0.28 57.83 -0.16 56.7 L -0.16 4.13 C 0.02 1.96 1.72 0.2 3.93 -0.11 L 81.36 -0.11 C 83.91 -0.21 86.09 1.65 86.32 4.13 L 86.24 57.55 C 85.73 59.8 83.73 61.43 81.36 61.53 L 54.22 61.53 L 53 66.37 C 52.72 67.48 52.91 68.66 53.53 69.64 C 54.15 70.61 55.15 71.3 56.31 71.54 C 58.94 72.41 61.71 72.79 64.49 72.64 L 69.53 72.64 L 69.53 77.73 L 13.07 77.73 L 13.07 72.64 L 19.07 72.64 C 22.21 72.66 25.33 72.14 28.29 71.12 C 30.62 70.57 32.06 68.3 31.51 66.03 L 30.73 61.53 Z M 6.28 55.26 L 79.62 55.26 L 79.62 6.42 L 6.28 6.42 Z" fill="#505050" stroke="none" pointer-events="all"/></g></svg>