<?xml version="1.0" encoding="UTF-8"?>
<!DOCTYPE svg PUBLIC "-//W3C//DTD SVG 1.1//EN" "http://www.w3.org/Graphics/SVG/1.1/DTD/svg11.dtd">
<svg xmlns="http://www.w3.org/2000/svg" xmlns:xlink="http://www.w3.org/1999/xlink" version="1.1" width="90px" height="83px" viewBox="-0.5 -0.5 90 83"><defs/><g><rect x="-0.28" y="0.16" width="86.61" height="77.95" fill="none" stroke="none" pointer-events="all" transform="translate(2,3)" opacity="0.25"/><rect x="-0.28" y="0.16" width="86.61" height="77.95" fill="none" stroke="none" pointer-events="all"/><path d="M 3.76 61.74 C 2.6 61.64 1.54 61.08 0.8 60.21 C 0.06 59.33 -0.28 58.21 -0.16 57.08 L -0.16 4.51 C 0.02 2.34 1.72 0.58 3.93 0.27 L 81.36 0.27 C 83.91 0.17 86.09 2.03 86.32 4.51 L 86.24 57.93 C 85.73 60.18 83.73 61.81 81.36 61.91 L 54.22 61.91 L 53 66.75 C 52.72 67.86 52.91 69.04 53.53 70.02 C 54.15 70.99 55.15 71.68 56.31 71.92 C 58.94 72.79 61.71 73.17 64.49 73.02 L 69.53 73.02 L 69.53 78.11 L 13.07 78.11 L 13.07 73.02 L 19.07 73.02 C 22.21 73.04 25.33 72.52 28.29 71.5 C 30.62 70.95 32.06 68.68 31.51 66.41 L 30.73 61.91 Z M 6.28 55.64 L 79.62 55.64 L 79.62 6.8 L 6.28 6.8 Z" fill="#000000" stroke="none" pointer-events="all" transform="translate(2,3)" opacity="0.25"/><path d="M 3.76 61.74 C 2.6 61.64 1.54 61.08 0.8 60.21 C 0.06 59.33 -0.28 58.21 -0.16 57.08 L -0.16 4.51 C 0.02 2.34 1.72 0.58 3.93 0.27 L 81.36 0.27 C 83.91 0.17 86.09 2.03 86.32 4.51 L 86.24 57.93 C 85.73 60.18 83.73 61.81 81.36 61.91 L 54.22 61.91 L 53 66.75 C 52.72 67.86 52.91 69.04 53.53 70.02 C 54.15 70.99 55.15 71.68 56.31 71.92 C 58.94 72.79 61.71 73.17 64.49 73.02 L 69.53 73.02 L 69.53 78.11 L 13.07 78.11 L 13.07 73.02 L 19.07 73.02 C 22.21 73.04 25.33 72.52 28.29 71.5 C 30.62 70.95 32.06 68.68 31.51 66.41 L 30.73 61.91 Z M 6.28 55.64 L 79.62 55.64 L 79.62 6.8 L 6.28 6.8 Z" fill="#007fff" stroke="none" pointer-events="all"/></g></svg>